<svg width="19" height="11" viewBox="0 0 19 11" fill="none" xmlns="http://www.w3.org/2000/svg">
<path d="M9.48792 7.7129L16.8379 0.362903C17.0879 0.112903 17.3837 -0.00793011 17.7254 0.000403226C18.0671 0.00873656 18.3629 0.137903 18.6129 0.387903C18.8629 0.637903 18.9879 0.933737 18.9879 1.2754C18.9879 1.61707 18.8629 1.9129 18.6129 2.1629L10.9129 9.8379C10.7129 10.0379 10.4879 10.1879 10.2379 10.2879C9.98792 10.3879 9.73792 10.4379 9.48792 10.4379C9.23792 10.4379 8.98792 10.3879 8.73792 10.2879C8.48792 10.1879 8.26291 10.0379 8.06291 9.8379L0.362915 2.1379C0.112915 1.8879 -0.00791931 1.59624 0.000413895 1.2629C0.0087471 0.92957 0.137915 0.637903 0.387915 0.387903C0.637915 0.137903 0.933748 0.0129032 1.27542 0.0129032C1.61708 0.0129032 1.91291 0.137903 2.16291 0.387903L9.48792 7.7129Z" fill="#54370D"/>
</svg>
