<svg width="95" height="98" viewBox="0 0 95 98" fill="none" xmlns="http://www.w3.org/2000/svg">
<path d="M26.6352 1.17327L27.5697 -0.000130468L29.9165 1.8687L28.982 3.0421L27.8087 2.10769L26.6352 1.17327ZM94.6135 86.5125L81.1206 97.3726L78.462 80.2573L94.6135 86.5125ZM27.8087 2.10769L28.982 3.0421C12.1561 24.1715 4.63342 40.2032 3.24139 52.2357C2.54881 58.2222 3.37528 63.1998 5.30989 67.3474C7.24641 71.4991 10.3345 74.907 14.2974 77.6853C22.2634 83.2702 33.6624 86.2374 45.8254 87.4883C57.9534 88.7355 70.6627 88.2591 81.1005 87.095L81.2667 88.5858L81.433 90.0765C70.8416 91.2578 57.9109 91.7469 45.5185 90.4725C33.1613 89.2017 21.1596 86.1602 12.5752 80.1418C8.26286 77.1185 4.78836 73.3262 2.59111 68.6156C0.391956 63.9009 -0.486464 58.3542 0.261267 51.8909C1.74984 39.0239 9.68852 22.4543 26.6352 1.17327L27.8087 2.10769Z" fill="#F1C953"/>
</svg>
