<svg width="40" height="40" viewBox="0 0 40 40" fill="none" xmlns="http://www.w3.org/2000/svg">
<path d="M8.375 33.1143H14.1875V23.4C14.1875 22.8495 14.3732 22.3881 14.7445 22.0157C15.1159 21.6433 15.576 21.4571 16.125 21.4571H23.875C24.424 21.4571 24.8841 21.6433 25.2555 22.0157C25.6268 22.3881 25.8125 22.8495 25.8125 23.4V33.1143H31.625V15.6286L20 6.88571L8.375 15.6286V33.1143ZM4.5 33.1143V15.6286C4.5 15.0133 4.63724 14.4305 4.91172 13.88C5.1862 13.3295 5.56563 12.8762 6.05 12.52L17.675 3.77714C18.3531 3.25905 19.1281 3 20 3C20.8719 3 21.6469 3.25905 22.325 3.77714L33.95 12.52C34.4344 12.8762 34.8138 13.3295 35.0883 13.88C35.3628 14.4305 35.5 15.0133 35.5 15.6286V33.1143C35.5 34.1829 35.1206 35.0976 34.3617 35.8586C33.6029 36.6195 32.6906 37 31.625 37H23.875C23.326 37 22.8659 36.8138 22.4945 36.4414C22.1232 36.069 21.9375 35.6076 21.9375 35.0571V25.3429H18.0625V35.0571C18.0625 35.6076 17.8768 36.069 17.5055 36.4414C17.1341 36.8138 16.674 37 16.125 37H8.375C7.30938 37 6.39714 36.6195 5.63828 35.8586C4.87943 35.0976 4.5 34.1829 4.5 33.1143Z" fill="#4EA487"/>
</svg>
