<svg width="48" height="48" viewBox="0 0 48 48" fill="none" xmlns="http://www.w3.org/2000/svg">
<mask id="mask0_3178_1151" style="mask-type:alpha" maskUnits="userSpaceOnUse" x="0" y="0" width="48" height="48">
<rect width="48" height="48" fill="#D9D9D9"/>
</mask>
<g mask="url(#mask0_3178_1151)">
<path d="M18 40H10C8.9 40 7.95833 39.6083 7.175 38.825C6.39167 38.0417 6 37.1 6 36V8C6 6.9 6.39167 5.95833 7.175 5.175C7.95833 4.39167 8.9 4 10 4H38C39.1 4 40.0417 4.39167 40.825 5.175C41.6083 5.95833 42 6.9 42 8V36C42 37.1 41.6083 38.0417 40.825 38.825C40.0417 39.6083 39.1 40 38 40H30L25.4 44.6C25 45 24.5333 45.2 24 45.2C23.4667 45.2 23 45 22.6 44.6L18 40ZM10 36H19.6L24 40.4L28.4 36H38V8H10V36ZM23.8 34C24.5 34 25.0917 33.7583 25.575 33.275C26.0583 32.7917 26.3 32.2 26.3 31.5C26.3 30.8 26.0583 30.2083 25.575 29.725C25.0917 29.2417 24.5 29 23.8 29C23.1 29 22.5083 29.2417 22.025 29.725C21.5417 30.2083 21.3 30.8 21.3 31.5C21.3 32.2 21.5417 32.7917 22.025 33.275C22.5083 33.7583 23.1 34 23.8 34ZM27.3 16C27.3 16.5667 27.1167 17.175 26.75 17.825C26.3833 18.475 25.7667 19.1833 24.9 19.95C24.3333 20.45 23.875 20.925 23.525 21.375C23.175 21.825 22.8833 22.2833 22.65 22.75C22.5167 23.0167 22.4167 23.2833 22.35 23.55C22.2833 23.8167 22.2167 24.1167 22.15 24.45C22.0833 24.95 22.2167 25.3833 22.55 25.75C22.8833 26.1167 23.3167 26.3 23.85 26.3C24.3167 26.3 24.7333 26.1333 25.1 25.8C25.4667 25.4667 25.7167 25.0167 25.85 24.45C25.95 23.9833 26.1417 23.55 26.425 23.15C26.7083 22.75 27.1667 22.2333 27.8 21.6C28.9667 20.4333 29.7917 19.45 30.275 18.65C30.7583 17.85 31 16.9667 31 16C31 14.2 30.3917 12.75 29.175 11.65C27.9583 10.55 26.3 10 24.2 10C22.7 10 21.4 10.3167 20.3 10.95C19.2 11.5833 18.3167 12.4667 17.65 13.6C17.4167 14 17.4083 14.4167 17.625 14.85C17.8417 15.2833 18.1833 15.5833 18.65 15.75C19.0833 15.9167 19.5167 15.9167 19.95 15.75C20.3833 15.5833 20.7333 15.3167 21 14.95C21.3667 14.4833 21.8167 14.1083 22.35 13.825C22.8833 13.5417 23.5 13.4 24.2 13.4C25.0667 13.4 25.8 13.6417 26.4 14.125C27 14.6083 27.3 15.2333 27.3 16Z" fill="#F1C953"/>
</g>
</svg>
