<svg width="36" height="42" viewBox="0 0 36 42" fill="none" xmlns="http://www.w3.org/2000/svg">
<path d="M12 36H4C2.9 36 1.95833 35.6083 1.175 34.825C0.391667 34.0417 0 33.1 0 32V4C0 2.9 0.391667 1.95833 1.175 1.175C1.95833 0.391667 2.9 0 4 0H32C33.1 0 34.0417 0.391667 34.825 1.175C35.6083 1.95833 36 2.9 36 4V32C36 33.1 35.6083 34.0417 34.825 34.825C34.0417 35.6083 33.1 36 32 36H24L19.4 40.6C19.2 40.8 18.9833 40.9417 18.75 41.025C18.5167 41.1083 18.2667 41.15 18 41.15C17.7333 41.15 17.4833 41.1083 17.25 41.025C17.0167 40.9417 16.8 40.8 16.6 40.6L12 36ZM4 29.7C5.8 27.9333 7.89167 26.5417 10.275 25.525C12.6583 24.5083 15.2333 24 18 24C20.7667 24 23.3417 24.5083 25.725 25.525C28.1083 26.5417 30.2 27.9333 32 29.7V4H4V29.7ZM18 20C19.9333 20 21.5833 19.3167 22.95 17.95C24.3167 16.5833 25 14.9333 25 13C25 11.0667 24.3167 9.41667 22.95 8.05C21.5833 6.68333 19.9333 6 18 6C16.0667 6 14.4167 6.68333 13.05 8.05C11.6833 9.41667 11 11.0667 11 13C11 14.9333 11.6833 16.5833 13.05 17.95C14.4167 19.3167 16.0667 20 18 20ZM8 32H28V31.5C26.6 30.3333 25.05 29.4583 23.35 28.875C21.65 28.2917 19.8667 28 18 28C16.1333 28 14.35 28.2917 12.65 28.875C10.95 29.4583 9.4 30.3333 8 31.5V32ZM18 16C17.1667 16 16.4583 15.7083 15.875 15.125C15.2917 14.5417 15 13.8333 15 13C15 12.1667 15.2917 11.4583 15.875 10.875C16.4583 10.2917 17.1667 10 18 10C18.8333 10 19.5417 10.2917 20.125 10.875C20.7083 11.4583 21 12.1667 21 13C21 13.8333 20.7083 14.5417 20.125 15.125C19.5417 15.7083 18.8333 16 18 16Z" fill="#F1C953"/>
</svg>
