<svg width="40" height="40" viewBox="0 0 40 40" fill="none" xmlns="http://www.w3.org/2000/svg">
<mask id="mask0_10702_572" style="mask-type:alpha" maskUnits="userSpaceOnUse" x="0" y="0" width="40" height="40">
<rect width="40" height="40" fill="#D9D9D9"/>
</mask>
<g mask="url(#mask0_10702_572)">
<path d="M15 33.3335H8.33333C7.41667 33.3335 6.63194 33.0071 5.97917 32.3543C5.32639 31.7016 5 30.9168 5 30.0002V6.66683C5 5.75016 5.32639 4.96544 5.97917 4.31266C6.63194 3.65989 7.41667 3.3335 8.33333 3.3335H31.6667C32.5833 3.3335 33.3681 3.65989 34.0208 4.31266C34.6736 4.96544 35 5.75016 35 6.66683V30.0002C35 30.9168 34.6736 31.7016 34.0208 32.3543C33.3681 33.0071 32.5833 33.3335 31.6667 33.3335H25L21.1667 37.1668C21 37.3335 20.8194 37.4516 20.625 37.521C20.4306 37.5904 20.2222 37.6252 20 37.6252C19.7778 37.6252 19.5694 37.5904 19.375 37.521C19.1806 37.4516 19 37.3335 18.8333 37.1668L15 33.3335ZM8.33333 28.0835C9.83333 26.6113 11.5764 25.4516 13.5625 24.6043C15.5486 23.7571 17.6944 23.3335 20 23.3335C22.3056 23.3335 24.4514 23.7571 26.4375 24.6043C28.4236 25.4516 30.1667 26.6113 31.6667 28.0835V6.66683H8.33333V28.0835ZM20 20.0002C21.6111 20.0002 22.9861 19.4307 24.125 18.2918C25.2639 17.1529 25.8333 15.7779 25.8333 14.1668C25.8333 12.5557 25.2639 11.1807 24.125 10.0418C22.9861 8.90294 21.6111 8.3335 20 8.3335C18.3889 8.3335 17.0139 8.90294 15.875 10.0418C14.7361 11.1807 14.1667 12.5557 14.1667 14.1668C14.1667 15.7779 14.7361 17.1529 15.875 18.2918C17.0139 19.4307 18.3889 20.0002 20 20.0002ZM11.6667 30.0002H28.3333V29.5835C27.1667 28.6113 25.875 27.8821 24.4583 27.396C23.0417 26.9099 21.5556 26.6668 20 26.6668C18.4444 26.6668 16.9583 26.9099 15.5417 27.396C14.125 27.8821 12.8333 28.6113 11.6667 29.5835V30.0002ZM20 16.6668C19.3056 16.6668 18.7153 16.4238 18.2292 15.9377C17.7431 15.4516 17.5 14.8613 17.5 14.1668C17.5 13.4724 17.7431 12.8821 18.2292 12.396C18.7153 11.9099 19.3056 11.6668 20 11.6668C20.6944 11.6668 21.2847 11.9099 21.7708 12.396C22.2569 12.8821 22.5 13.4724 22.5 14.1668C22.5 14.8613 22.2569 15.4516 21.7708 15.9377C21.2847 16.4238 20.6944 16.6668 20 16.6668Z" fill="#4EA487"/>
</g>
</svg>
