<svg width="176" height="176" viewBox="0 0 176 176" fill="none" xmlns="http://www.w3.org/2000/svg">
<mask id="mask0_3035_543" style="mask-type:alpha" maskUnits="userSpaceOnUse" x="0" y="0" width="176" height="176">
<rect width="176" height="176" fill="#D9D9D9"/>
</mask>
<g mask="url(#mask0_3035_543)">
<path d="M69.6665 121L121 87.9998L69.6665 54.9998V121ZM87.9998 161.333C77.8554 161.333 68.3221 159.408 59.3998 155.558C50.4776 151.708 42.7165 146.483 36.1165 139.883C29.5165 133.283 24.2915 125.522 20.4415 116.6C16.5915 107.678 14.6665 98.1443 14.6665 87.9998C14.6665 77.8554 16.5915 68.3221 20.4415 59.3998C24.2915 50.4776 29.5165 42.7165 36.1165 36.1165C42.7165 29.5165 50.4776 24.2915 59.3998 20.4415C68.3221 16.5915 77.8554 14.6665 87.9998 14.6665C98.1443 14.6665 107.678 16.5915 116.6 20.4415C125.522 24.2915 133.283 29.5165 139.883 36.1165C146.483 42.7165 151.708 50.4776 155.558 59.3998C159.408 68.3221 161.333 77.8554 161.333 87.9998C161.333 98.1443 159.408 107.678 155.558 116.6C151.708 125.522 146.483 133.283 139.883 139.883C133.283 146.483 125.522 151.708 116.6 155.558C107.678 159.408 98.1443 161.333 87.9998 161.333ZM87.9998 146.667C104.378 146.667 118.25 140.983 129.617 129.617C140.983 118.25 146.667 104.378 146.667 87.9998C146.667 71.6221 140.983 57.7498 129.617 46.3832C118.25 35.0165 104.378 29.3332 87.9998 29.3332C71.6221 29.3332 57.7498 35.0165 46.3832 46.3832C35.0165 57.7498 29.3332 71.6221 29.3332 87.9998C29.3332 104.378 35.0165 118.25 46.3832 129.617C57.7498 140.983 71.6221 146.667 87.9998 146.667Z" fill="white"/>
</g>
</svg>
