<svg width="40" height="40" viewBox="0 0 40 40" fill="none" xmlns="http://www.w3.org/2000/svg">
<mask id="mask0_10702_566" style="mask-type:alpha" maskUnits="userSpaceOnUse" x="0" y="0" width="40" height="40">
<rect width="40" height="40" fill="#D9D9D9"/>
</mask>
<g mask="url(#mask0_10702_566)">
<path d="M11.8327 18.917C12.2216 18.1392 12.6243 17.3892 13.041 16.667C13.4577 15.9448 13.916 15.2226 14.416 14.5003L12.0827 14.042L8.58268 17.542L11.8327 18.917ZM31.916 7.45867C29.9716 7.51423 27.8952 8.08367 25.6868 9.16701C23.4785 10.2503 21.4716 11.6948 19.666 13.5003C18.4993 14.667 17.4577 15.917 16.541 17.2503C15.6243 18.5837 14.9438 19.8337 14.4993 21.0003L19.2493 25.7087C20.416 25.2642 21.666 24.5837 22.9993 23.667C24.3327 22.7503 25.5827 21.7087 26.7493 20.542C28.5549 18.7365 29.9994 16.7365 31.0827 14.542C32.166 12.3476 32.7355 10.2781 32.791 8.33367C32.791 8.22256 32.7702 8.11145 32.7285 8.00034C32.6868 7.88923 32.6244 7.79201 32.541 7.70867C32.4577 7.62534 32.3605 7.56284 32.2494 7.52117C32.1382 7.4795 32.0271 7.45867 31.916 7.45867ZM22.7493 17.4587C22.1105 16.8198 21.791 16.0351 21.791 15.1045C21.791 14.174 22.1105 13.3892 22.7493 12.7503C23.3882 12.1115 24.1799 11.792 25.1244 11.792C26.0688 11.792 26.8605 12.1115 27.4993 12.7503C28.1382 13.3892 28.4577 14.174 28.4577 15.1045C28.4577 16.0351 28.1382 16.8198 27.4993 17.4587C26.8605 18.0976 26.0688 18.417 25.1244 18.417C24.1799 18.417 23.3882 18.0976 22.7493 17.4587ZM21.3327 28.3753L22.7077 31.667L26.2077 28.167L25.7494 25.8337C25.0271 26.3337 24.3049 26.7851 23.5827 27.1878C22.8605 27.5906 22.1105 27.9865 21.3327 28.3753ZM35.9577 6.12534C36.1799 9.18089 35.6799 12.1601 34.4577 15.0628C33.2355 17.9656 31.3049 20.7365 28.666 23.3753L29.4994 27.5003C29.6105 28.0559 29.5827 28.5976 29.416 29.1253C29.2494 29.6531 28.9716 30.1115 28.5827 30.5003L23.3327 35.7503C22.916 36.167 22.416 36.3267 21.8327 36.2295C21.2493 36.1323 20.8466 35.8059 20.6243 35.2503L18.0827 29.292L10.9577 22.167L4.99935 19.6253C4.44379 19.4031 4.11046 19.0003 3.99935 18.417C3.88824 17.8337 4.04102 17.3337 4.45768 16.917L9.70768 11.667C10.0966 11.2781 10.5618 11.0003 11.1035 10.8337C11.6452 10.667 12.1938 10.6392 12.7493 10.7503L16.8743 11.5837C19.5132 8.94478 22.2841 7.01423 25.1868 5.792C28.0896 4.56978 31.0688 4.06978 34.1244 4.292C34.3466 4.31978 34.5688 4.38228 34.791 4.4795C35.0132 4.57673 35.2077 4.70867 35.3744 4.87534C35.541 5.042 35.673 5.23645 35.7702 5.45867C35.8674 5.68089 35.9299 5.90312 35.9577 6.12534ZM6.54102 26.6253C7.51324 25.6531 8.70074 25.1601 10.1035 25.1462C11.5063 25.1323 12.6938 25.6115 13.666 26.5837C14.6382 27.5559 15.1174 28.7434 15.1035 30.1462C15.0896 31.549 14.5966 32.7365 13.6243 33.7087C12.291 35.042 10.7146 35.8337 8.89518 36.0837C7.07574 36.3337 5.24935 36.5837 3.41602 36.8337C3.66602 35.0003 3.91602 33.174 4.16602 31.3545C4.41602 29.5351 5.20768 27.9587 6.54102 26.6253ZM8.91602 28.9587C8.44379 29.4309 8.1174 30.0003 7.93685 30.667C7.75629 31.3337 7.61046 32.0142 7.49935 32.7087C8.19379 32.5976 8.87435 32.4587 9.54102 32.292C10.2077 32.1253 10.7771 31.8059 11.2493 31.3337C11.5827 31.0003 11.7632 30.5976 11.791 30.1253C11.8188 29.6531 11.666 29.2503 11.3327 28.917C10.9993 28.5837 10.5966 28.424 10.1243 28.4378C9.65213 28.4517 9.24935 28.6253 8.91602 28.9587Z" fill="#4EA487"/>
</g>
</svg>
